# xmcd CD database file
#
# Track frame offsets:
#	150
#	40147
#	66105
#	94251
#	123789
#	155807
#	192372
#	220751
#	249926
#	278008
#	311195
#
# Disc length: 4529 seconds
#
# Revision: 0
# Processed by: cddbd v1.5.2PL0 Copyright (c) Steve Scherf et al.
# Submitted via: CDex 1.70beta2
#
DISCID=9a11af0b
DTITLE=Mike Stern - All Over The Place
DYEAR=2012
DGENRE=Jazz
TTITLE0=AJ
TTITLE1=Cameroon
TTITLE2=Out Of The Blue
TTITLE3=As Far As We Know
TTITLE4=Blues For All
TTITLE5=OCD
TTITLE6=You Never Told Me
TTITLE7=Half Way Home
TTITLE8=Light
TTITLE9=Flipside
TTITLE10=All Over The Place
EXTD=YEAR: 2012
EXTT0=
EXTT1=
EXTT2=
EXTT3=
EXTT4=
EXTT5=
EXTT6=
EXTT7=
EXTT8=
EXTT9=
EXTT10=
PLAYORDER=
